<?xml version="1.0" encoding="utf-8"?>
<!-- Generator: Adobe Illustrator 18.1.0, SVG Export Plug-In . SVG Version: 6.00 Build 0)  -->
<svg version="1.1" id="Layer_1" xmlns="http://www.w3.org/2000/svg" xmlns:xlink="http://www.w3.org/1999/xlink" x="0px" y="0px"
	 viewBox="0 0 500 500" enable-background="new 0 0 500 500" xml:space="preserve">
<path fill="#010101" d="M476.9,185.6H324L268.4,66.3c-1.5-4.1-4.3-7.9-8.3-10.3c-0.1-0.1-0.3-0.1-0.4-0.3c-0.5-0.3-0.9-0.7-1.5-0.8
	c-0.4-0.3-0.9-0.3-1.3-0.4c-0.3-0.1-0.7-0.3-0.9-0.3c-0.8-0.3-1.6-0.5-2.5-0.7c-0.5-0.1-0.9-0.1-1.5-0.3c-0.7-0.1-1.3-0.1-2-0.1
	s-1.3,0-2,0.1c-0.5,0-0.9,0.1-1.5,0.3c-0.8,0.1-1.7,0.4-2.5,0.7c-0.3,0.1-0.7,0.3-0.9,0.3c-0.4,0.1-0.9,0.3-1.3,0.4
	c-0.5,0.3-0.9,0.5-1.5,0.8c-0.1,0.1-0.3,0.1-0.4,0.3c-4,2.4-6.9,6-8.3,10.3L176,185.6h-153C10.4,185.6,0,195.9,0,208.7
	c0,12.7,10.3,23.1,23.1,23.1h8.8l24.5,195.5c1.3,10.8,11.3,19.6,22.1,19.6l151.8-0.4c10.8,0,28.7,0,39.4,0l151.8,0.4
	c10.8,0,20.8-8.8,22.1-19.6l24.5-195.5h8.8c12.7,0,23.1-10.3,23.1-23.1C500,196,489.7,185.6,476.9,185.6z M250,72.6
	c4,0,7.2,3.2,7.2,7.2c0,4-3.2,7.2-7.2,7.2c-4,0-7.2-3.2-7.2-7.2C242.8,75.8,246,72.6,250,72.6z M250,118.7l31.2,66.9h-62.5
	L250,118.7z M162.3,370.5c0,11.5-9.3,20.8-20.8,20.8c-11.5,0-20.8-9.3-20.8-20.8v-84.2c0-11.5,9.3-20.8,20.8-20.8
	c11.5,0,20.8,9.3,20.8,20.8V370.5z M270.8,370.5c0,11.5-9.3,20.8-20.8,20.8c-11.5,0-20.8-9.3-20.8-20.8v-84.2
	c0-11.5,9.3-20.8,20.8-20.8c11.5,0,20.8,9.3,20.8,20.8V370.5z M379.3,370.5c0,11.5-9.3,20.8-20.8,20.8c-11.5,0-20.8-9.3-20.8-20.8
	v-84.2c0-11.5,9.3-20.8,20.8-20.8c11.5,0,20.8,9.3,20.8,20.8V370.5z"/>
</svg>
